<?xml version="1.0" encoding="utf-8"?>
<svg version="1.1" xmlns="http://www.w3.org/2000/svg" xmlns:xlink="http://www.w3.org/1999/xlink" 
     viewBox="0 0 24 24" style="enable-background:new 0 0 24 24;" xml:space="preserve">
     
<defs>
    <!-- Dégradé gris pour l'étoile inactive -->
    <linearGradient id="grayGradient" x1="0%" y1="0%" x2="100%" y2="100%">
        <stop offset="0%" style="stop-color:#E8E8E8;stop-opacity:1" />
        <stop offset="50%" style="stop-color:#D3D3D3;stop-opacity:1" />
        <stop offset="100%" style="stop-color:#C0C0C0;stop-opacity:1" />
    </linearGradient>
    
    <!-- Dégradé pour l'ombre grise -->
    <linearGradient id="grayShadowGradient" x1="0%" y1="0%" x2="100%" y2="100%">
        <stop offset="0%" style="stop-color:#A9A9A9;stop-opacity:0.6" />
        <stop offset="100%" style="stop-color:#808080;stop-opacity:0.2" />
    </linearGradient>
    
    <!-- Dégradé doré pour l'état hover -->
    <linearGradient id="goldHoverGradient" x1="0%" y1="0%" x2="100%" y2="100%">
        <stop offset="0%" style="stop-color:#FFD700;stop-opacity:0.8" />
        <stop offset="50%" style="stop-color:#FFA500;stop-opacity:0.8" />
        <stop offset="100%" style="stop-color:#FF8C00;stop-opacity:0.8" />
    </linearGradient>
</defs>

<style>
    .star-inactive {
        cursor: pointer;
        transition: all 0.2s ease-in-out;
    }
    
    .star-inactive:hover {
        fill: url(#goldHoverGradient);
        stroke: #DAA520;
        transform: scale(1.1);
    }
    
    .star-inactive:hover + .star-shadow {
        opacity: 0.5;
    }
</style>

<!-- Ombre de l'étoile (décalée légèrement) -->
<path class="star-shadow" d="M12.5,3.2 L14.8,8.1 L20.3,8.8 L16.4,12.6 L17.4,18.1 L12.5,15.6 L7.6,18.1 L8.6,12.6 L4.7,8.8 L10.2,8.1 Z"
      fill="url(#grayShadowGradient)" opacity="0.2"/>

<!-- Étoile principale -->
<path class="star-inactive" d="M12,2.5 L14.3,7.4 L19.8,8.1 L15.9,11.9 L16.9,17.4 L12,14.9 L7.1,17.4 L8.1,11.9 L4.2,8.1 L9.7,7.4 Z"
      fill="url(#grayGradient)" 
      stroke="#B0B0B0" 
      stroke-width="0.2"/>

<!-- Effet de brillance subtil -->
<path d="M12,2.5 L14.3,7.4 L19.8,8.1 L15.9,11.9 L16.9,17.4 L12,14.9 L7.1,17.4 L8.1,11.9 L4.2,8.1 L9.7,7.4 Z"
      fill="none" 
      stroke="url(#grayGradient)" 
      stroke-width="0.3" 
      opacity="0.5"/>

</svg>